<mxfile host="app.diagrams.net" modified="2023-05-27T19:02:06.455Z" agent="Mozilla/5.0 (X11; Linux x86_64) AppleWebKit/537.36 (KHTML, like Gecko) Chrome/113.0.0.0 Safari/537.36" version="21.3.4" etag="G4zoGOejbTrPuafNTDm_" type="github">
  <diagram name="PÃ¡gina-1" id="y6-daSAug2PFhCAaeR3A">
    <mxGraphModel>
      <root>
        <mxCell id="0" />
        <mxCell id="1" parent="0" />
      </root>
    </mxGraphModel>
  </diagram>
</mxfile>
